<?xml version="1.0" encoding="utf-8"?>
<!-- Generator: Adobe Illustrator 16.0.0, SVG Export Plug-In . SVG Version: 6.00 Build 0)  -->
<!DOCTYPE svg PUBLIC "-//W3C//DTD SVG 1.1//EN" "http://www.w3.org/Graphics/SVG/1.1/DTD/svg11.dtd">
<svg version="1.1" id="Layer_1" xmlns="http://www.w3.org/2000/svg" xmlns:xlink="http://www.w3.org/1999/xlink" x="0px" y="0px"
	 width="312.391px" height="114.055px" viewBox="0 0 312.391 114.055" enable-background="new 0 0 312.391 114.055"
	 xml:space="preserve">
<path fill="#F6CF3F" d="M0.978,86.286C0.156,85.921,0,85.665,0,84.526c0-2.853,0.207-5.962,0.26-6.79
	c0.049-0.778,0.203-1.349,0.613-1.349c0.467,0,0.518,0.467,0.518,0.879c0,0.676,0.205,1.764,0.46,2.646
	c1.135,3.832,4.173,5.232,7.365,5.232c4.632,0,6.894-3.161,6.894-5.905c0-2.542-0.771-4.927-5.041-8.297L8.697,69.08
	c-5.663-4.459-7.615-8.088-7.615-12.286c0-5.702,4.736-9.795,11.89-9.795c3.347,0,5.509,0.518,6.848,0.879
	c0.464,0.104,0.718,0.261,0.718,0.623c0,0.675-0.205,2.176-0.205,6.223c0,1.139-0.154,1.551-0.567,1.551
	c-0.358,0-0.514-0.309-0.514-0.933c0-0.464-0.254-2.072-1.336-3.421c-0.774-0.983-2.266-2.539-5.613-2.539
	c-3.809,0-6.126,2.231-6.126,5.341c0,2.383,1.182,4.197,5.455,7.462l1.443,1.088c6.228,4.718,8.443,8.291,8.443,13.216
	c0,3.006-1.135,6.584-4.84,9.021c-2.575,1.656-5.456,2.122-8.184,2.122C5.509,87.631,3.19,87.271,0.978,86.286z"/>
<path fill="#F6CF3F" d="M24.853,67.317C24.853,58.45,30.671,47,46.115,47c12.816,0,20.794,7.514,20.794,19.384
	c0,11.867-8.237,21.248-21.311,21.248C30.825,87.631,24.853,76.489,24.853,67.317z M59.702,68.299
	c0-11.608-6.639-18.813-15.081-18.813c-5.921,0-12.663,3.315-12.663,16.224c0,10.778,5.918,19.329,15.801,19.329
	C51.364,85.04,59.702,83.279,59.702,68.299z"/>
<path fill="#F6CF3F" d="M72.668,62.754c0-7.877,0-9.33-0.103-10.988c-0.105-1.761-0.515-2.59-2.216-2.951
	c-0.41-0.104-1.285-0.159-2.009-0.159c-0.562,0-0.873-0.103-0.873-0.463c0-0.365,0.36-0.466,1.133-0.466
	c2.729,0,5.971,0.151,7.516,0.151c1.236,0,4.477-0.151,6.331-0.151c0.771,0,1.133,0.101,1.133,0.466
	c0,0.362-0.308,0.463-0.825,0.463c-0.563,0-0.873,0.054-1.492,0.159c-1.387,0.257-1.8,1.139-1.905,2.951
	c-0.104,1.659-0.104,3.111-0.104,10.988v7.259c0,7.514,1.498,10.674,4.019,12.75c2.313,1.919,4.682,2.121,6.434,2.121
	c2.264,0,5.044-0.724,7.104-2.796c2.83-2.849,2.983-7.516,2.983-12.854v-6.48c0-7.877,0-9.33-0.101-10.988
	c-0.104-1.761-0.516-2.59-2.214-2.951c-0.41-0.104-1.286-0.159-1.852-0.159c-0.565,0-0.876-0.103-0.876-0.463
	c0-0.365,0.362-0.466,1.08-0.466c2.625,0,5.872,0.151,5.921,0.151c0.618,0,3.861-0.151,5.867-0.151c0.723,0,1.083,0.101,1.083,0.466
	c0,0.362-0.309,0.463-0.927,0.463c-0.568,0-0.873,0.054-1.492,0.159c-1.389,0.257-1.803,1.139-1.906,2.951
	c-0.104,1.659-0.104,3.111-0.104,10.988v5.545c0,5.753-0.564,11.869-4.888,15.603c-3.655,3.16-7.361,3.729-10.707,3.729
	c-2.729,0-7.672-0.153-11.428-3.573c-2.627-2.384-4.582-6.222-4.582-13.733V62.754L72.668,62.754z"/>
<path fill="#F6CF3F" d="M124.644,50.626l-7.67,0.207c-2.983,0.104-4.222,0.365-4.992,1.504c-0.515,0.777-0.775,1.399-0.875,1.815
	c-0.103,0.416-0.258,0.622-0.567,0.622c-0.358,0-0.463-0.26-0.463-0.831c0-0.829,0.981-5.543,1.082-5.959
	c0.154-0.676,0.309-0.983,0.617-0.983c0.412,0,0.926,0.518,2.216,0.623c1.493,0.154,3.447,0.256,5.145,0.256h20.385
	c1.646,0,2.781-0.151,3.552-0.256c0.773-0.156,1.186-0.26,1.391-0.26c0.359,0,0.413,0.31,0.413,1.088
	c0,1.088-0.154,4.664-0.154,6.013c-0.054,0.518-0.158,0.828-0.463,0.828c-0.413,0-0.516-0.26-0.567-1.038l-0.051-0.567
	c-0.104-1.349-1.494-2.798-6.075-2.903l-6.486-0.156v21.25c0,4.771,0,8.865,0.254,11.093c0.156,1.453,0.467,2.594,2.011,2.803
	c0.722,0.104,1.853,0.203,2.625,0.203c0.563,0,0.823,0.154,0.823,0.415c0,0.363-0.41,0.521-0.977,0.521
	c-3.399,0-6.644-0.156-8.083-0.156c-1.186,0-4.428,0.156-6.487,0.156c-0.669,0-1.028-0.156-1.028-0.521
	c0-0.261,0.204-0.415,0.823-0.415c0.774,0,1.389-0.101,1.855-0.203c1.027-0.209,1.339-1.35,1.491-2.854
	c0.258-2.177,0.258-6.271,0.258-11.042V50.626H124.644z"/>
<path fill="#F6CF3F" d="M178.632,64.207c0.155,0,0.312-0.104,0.312-0.364v-1.088c0-7.877,0-9.33-0.104-10.988
	c-0.101-1.761-0.514-2.59-2.216-2.951c-0.41-0.104-1.285-0.159-2.004-0.159c-0.567,0-0.878-0.102-0.878-0.463
	c0-0.365,0.364-0.466,1.082-0.466c2.778,0,6.022,0.151,7.411,0.151c1.236,0,4.477-0.151,6.486-0.151
	c0.725,0,1.081,0.101,1.081,0.466c0,0.362-0.308,0.463-0.927,0.463c-0.411,0-0.874,0.054-1.493,0.159
	c-1.392,0.257-1.805,1.139-1.905,2.951c-0.104,1.659-0.104,3.111-0.104,10.988v9.121c0,4.771,0,8.865,0.256,11.092
	c0.154,1.454,0.467,2.595,2.01,2.804c0.725,0.104,1.855,0.203,2.631,0.203c0.566,0,0.82,0.154,0.82,0.415
	c0,0.363-0.413,0.521-1.027,0.521c-3.353,0-6.592-0.156-8.031-0.156c-1.186,0-4.43,0.156-6.436,0.156
	c-0.722,0-1.08-0.156-1.08-0.521c0-0.261,0.203-0.415,0.821-0.415c0.774,0,1.392-0.101,1.856-0.203
	c1.027-0.209,1.285-1.35,1.49-2.854c0.26-2.177,0.26-6.271,0.26-11.042v-4.559c0-0.207-0.156-0.313-0.313-0.313h-19.664
	c-0.154,0-0.31,0.056-0.31,0.313v4.559c0,4.771,0,8.865,0.26,11.092c0.149,1.454,0.46,2.595,2.007,2.804
	c0.719,0.104,1.854,0.203,2.622,0.203c0.57,0,0.824,0.154,0.824,0.415c0,0.363-0.408,0.521-1.03,0.521
	c-3.343,0-6.586-0.156-8.029-0.156c-1.182,0-4.426,0.156-6.483,0.156c-0.672,0-1.032-0.156-1.032-0.521
	c0-0.261,0.208-0.415,0.826-0.415c0.77,0,1.387-0.101,1.85-0.203c1.03-0.209,1.29-1.35,1.494-2.854
	c0.259-2.177,0.259-6.271,0.259-11.042v-9.121c0-7.877,0-9.33-0.102-10.988c-0.105-1.761-0.517-2.59-2.215-2.951
	c-0.414-0.104-1.286-0.159-2.007-0.159c-0.568,0-0.875-0.102-0.875-0.463c0-0.365,0.358-0.466,1.079-0.466
	c2.781,0,6.025,0.151,7.411,0.151c1.239,0,4.482-0.151,6.491-0.151c0.72,0,1.08,0.101,1.08,0.466c0,0.362-0.31,0.463-0.928,0.463
	c-0.412,0-0.875,0.054-1.494,0.159c-1.388,0.257-1.802,1.139-1.904,2.951c-0.103,1.659-0.103,3.111-0.103,10.988v1.088
	c0,0.261,0.154,0.364,0.31,0.364H178.632z"/>
<path fill="#F6CF3F" d="M198.957,62.754c0-7.877,0-9.33-0.102-10.988c-0.104-1.761-0.515-2.59-2.215-2.951
	c-0.412-0.104-1.285-0.159-2.008-0.159c-0.564,0-0.871-0.103-0.871-0.463c0-0.365,0.359-0.466,1.129-0.466
	c1.395,0,2.885,0.05,4.17,0.05c1.338,0.051,2.523,0.102,3.242,0.102c1.651,0,11.891,0,12.869-0.051
	c0.98-0.101,1.803-0.206,2.213-0.311c0.26-0.051,0.566-0.209,0.824-0.209c0.256,0,0.311,0.209,0.311,0.469
	c0,0.362-0.254,0.983-0.41,3.368c-0.053,0.52-0.157,2.798-0.258,3.423c-0.054,0.26-0.156,0.567-0.518,0.567
	c-0.359,0-0.463-0.258-0.463-0.724c0-0.365-0.051-1.244-0.311-1.866c-0.361-0.932-0.873-1.555-3.449-1.868
	c-0.873-0.102-6.278-0.207-7.31-0.207c-0.257,0-0.356,0.155-0.356,0.521v13.111c0,0.364,0.05,0.569,0.356,0.569
	c1.136,0,7.058,0,8.235-0.104c1.236-0.102,2.011-0.257,2.475-0.774c0.358-0.415,0.566-0.675,0.821-0.675
	c0.204,0,0.36,0.104,0.36,0.415c0,0.309-0.204,1.139-0.416,3.783c-0.045,1.033-0.199,3.11-0.199,3.471c0,0.416,0,0.986-0.467,0.986
	c-0.36,0-0.461-0.21-0.461-0.467c-0.051-0.521-0.051-1.192-0.203-1.868c-0.26-1.034-0.98-1.813-2.887-2.021
	c-0.979-0.101-6.072-0.154-7.31-0.154c-0.258,0-0.308,0.209-0.308,0.52v4.094c0,1.765-0.057,6.529,0,8.037
	c0.101,3.575,0.923,4.354,6.175,4.354c1.336,0,3.498,0,4.838-0.623c1.34-0.625,1.957-1.713,2.315-3.836
	c0.104-0.567,0.209-0.777,0.57-0.777c0.41,0,0.41,0.413,0.41,0.934c0,1.192-0.41,4.719-0.669,5.752
	c-0.36,1.347-0.821,1.347-2.782,1.347c-3.857,0-6.691-0.1-8.904-0.152c-2.209-0.104-3.809-0.156-5.354-0.156
	c-0.563,0-1.696,0-2.931,0.053c-1.187,0-2.523,0.104-3.557,0.104c-0.666,0-1.025-0.156-1.025-0.521c0-0.261,0.203-0.415,0.822-0.415
	c0.772,0,1.391-0.101,1.854-0.203c1.029-0.209,1.289-1.35,1.49-2.854c0.259-2.177,0.259-6.271,0.259-11.042v-9.123H198.957z"/>
<path fill="#F6CF3F" d="M227.727,62.754c0-7.877,0-9.33-0.102-10.988c-0.104-1.761-0.516-2.59-2.213-2.951
	c-0.413-0.104-1.289-0.159-2.01-0.159c-0.564,0-0.875-0.103-0.875-0.463c0-0.365,0.361-0.466,1.132-0.466
	c2.729,0,5.973,0.151,7.055,0.151c1.747,0,5.662-0.151,7.257-0.151c3.24,0,6.692,0.308,9.477,2.227c1.437,0.983,3.5,3.626,3.5,7.102
	c0,3.833-1.598,7.357-6.797,11.609c4.582,5.803,8.132,10.416,11.172,13.631c2.878,3.005,4.992,3.369,5.764,3.525
	c0.566,0.101,1.028,0.152,1.439,0.152c0.416,0,0.619,0.154,0.619,0.415c0,0.415-0.361,0.521-0.979,0.521h-4.892
	c-2.883,0-4.164-0.26-5.504-0.987c-2.217-1.188-4.17-3.626-7.058-7.618c-2.058-2.85-4.427-6.375-5.096-7.15
	c-0.255-0.313-0.566-0.364-0.923-0.364l-4.48-0.103c-0.259,0-0.413,0.103-0.413,0.416v0.724c0,4.82,0,8.916,0.259,11.093
	c0.154,1.504,0.463,2.645,2.008,2.854c0.772,0.104,1.902,0.203,2.523,0.203c0.409,0,0.615,0.154,0.615,0.415
	c0,0.363-0.357,0.521-1.028,0.521c-2.985,0-6.797-0.156-7.565-0.156c-0.979,0-4.223,0.156-6.281,0.156
	c-0.671,0-1.028-0.156-1.028-0.521c0-0.261,0.207-0.415,0.821-0.415c0.771,0,1.393-0.101,1.854-0.203
	c1.031-0.209,1.289-1.35,1.494-2.854c0.256-2.177,0.256-6.271,0.256-11.042V62.754L227.727,62.754z M233.801,66.85
	c0,0.566,0.104,0.775,0.465,0.932c1.082,0.365,2.623,0.518,3.912,0.518c2.059,0,2.729-0.206,3.656-0.882
	c1.541-1.14,3.035-3.523,3.035-7.772c0-7.358-4.842-9.484-7.876-9.484c-1.289,0-2.216,0.05-2.728,0.209
	c-0.361,0.102-0.466,0.308-0.466,0.723L233.801,66.85L233.801,66.85z"/>
<g>
	<path fill="#F6CF3F" d="M1.006,113.477c-0.354-0.154-0.421-0.267-0.421-0.753c0-1.221,0.088-2.551,0.111-2.905
		c0.022-0.332,0.088-0.576,0.266-0.576c0.2,0,0.222,0.199,0.222,0.377c0,0.289,0.088,0.754,0.199,1.131
		c0.488,1.642,1.796,2.239,3.17,2.239c1.996,0,2.971-1.353,2.971-2.527c0-1.087-0.333-2.105-2.173-3.548l-1.02-0.798
		c-2.438-1.906-3.281-3.458-3.281-5.255c0-2.438,2.04-4.189,5.122-4.189c1.441,0,2.372,0.222,2.949,0.377
		c0.2,0.044,0.311,0.11,0.311,0.267c0,0.288-0.089,0.932-0.089,2.66c0,0.487-0.066,0.666-0.244,0.666
		c-0.155,0-0.222-0.134-0.222-0.399c0-0.2-0.111-0.887-0.576-1.464c-0.333-0.421-0.976-1.086-2.417-1.086
		c-1.641,0-2.639,0.953-2.639,2.283c0,1.021,0.51,1.797,2.35,3.192l0.621,0.465c2.683,2.019,3.636,3.549,3.636,5.654
		c0,1.285-0.488,2.815-2.084,3.857c-1.108,0.709-2.35,0.909-3.525,0.909C2.957,114.054,1.959,113.899,1.006,113.477z"/>
	<path fill="#F6CF3F" d="M23.293,98.224l-3.304,0.089c-1.286,0.044-1.818,0.153-2.15,0.643c-0.222,0.332-0.333,0.6-0.377,0.775
		c-0.044,0.178-0.111,0.267-0.244,0.267c-0.155,0-0.199-0.109-0.199-0.354c0-0.355,0.421-2.373,0.465-2.551
		c0.066-0.287,0.133-0.421,0.266-0.421c0.177,0,0.399,0.222,0.954,0.267c0.643,0.065,1.485,0.11,2.217,0.11h8.78
		c0.709,0,1.197-0.065,1.53-0.11c0.333-0.066,0.51-0.111,0.599-0.111c0.155,0,0.177,0.134,0.177,0.467
		c0,0.465-0.066,1.994-0.066,2.571c-0.022,0.222-0.066,0.354-0.2,0.354c-0.177,0-0.222-0.11-0.244-0.442l-0.022-0.244
		c-0.044-0.576-0.643-1.197-2.616-1.241l-2.794-0.065v9.09c0,2.04,0,3.792,0.111,4.745c0.067,0.621,0.2,1.107,0.865,1.196
		c0.311,0.044,0.798,0.089,1.131,0.089c0.244,0,0.355,0.065,0.355,0.178c0,0.155-0.178,0.222-0.421,0.222
		c-1.463,0-2.86-0.065-3.481-0.065c-0.51,0-1.907,0.065-2.793,0.065c-0.288,0-0.443-0.065-0.443-0.222
		c0-0.111,0.088-0.178,0.354-0.178c0.333,0,0.599-0.045,0.798-0.089c0.443-0.089,0.576-0.575,0.643-1.22
		c0.111-0.931,0.111-2.683,0.111-4.723v-9.091H23.293z"/>
	<path fill="#F6CF3F" d="M40.857,108.09c-0.111,0-0.155,0.044-0.2,0.179l-1.197,3.037c-0.222,0.555-0.333,1.086-0.333,1.352
		c0,0.4,0.2,0.688,0.887,0.688h0.333c0.266,0,0.333,0.046,0.333,0.179c0,0.178-0.133,0.222-0.377,0.222
		c-0.709,0-1.663-0.065-2.35-0.065c-0.244,0-1.463,0.065-2.616,0.065c-0.289,0-0.421-0.044-0.421-0.222
		c0-0.133,0.089-0.179,0.266-0.179c0.2,0,0.51-0.021,0.687-0.044c1.02-0.133,1.441-0.887,1.885-1.994l5.565-13.746
		c0.266-0.644,0.399-0.888,0.621-0.888c0.2,0,0.333,0.199,0.555,0.709c0.532,1.221,4.079,10.088,5.498,13.458
		c0.843,1.995,1.485,2.307,1.951,2.417c0.333,0.066,0.665,0.088,0.931,0.088c0.177,0,0.288,0.022,0.288,0.179
		c0,0.178-0.199,0.222-1.02,0.222c-0.798,0-2.417,0-4.19-0.044c-0.399-0.021-0.665-0.021-0.665-0.178
		c0-0.133,0.088-0.179,0.31-0.199c0.155-0.045,0.311-0.244,0.2-0.51l-1.773-4.568c-0.044-0.11-0.111-0.154-0.222-0.154h-4.946
		V108.09z M45.38,106.981c0.111,0,0.133-0.066,0.111-0.133l-1.996-5.453c-0.022-0.09-0.044-0.2-0.111-0.2
		c-0.067,0-0.111,0.11-0.133,0.2l-2.04,5.432c-0.022,0.088,0,0.154,0.089,0.154H45.38z"/>
	<path fill="#F6CF3F" d="M62.214,98.224l-3.304,0.089c-1.286,0.044-1.818,0.153-2.15,0.643c-0.222,0.332-0.333,0.6-0.377,0.775
		c-0.044,0.178-0.111,0.267-0.244,0.267c-0.155,0-0.199-0.109-0.199-0.354c0-0.355,0.421-2.373,0.465-2.551
		c0.066-0.287,0.133-0.421,0.266-0.421c0.177,0,0.399,0.222,0.954,0.267c0.643,0.065,1.485,0.11,2.217,0.11h8.78
		c0.709,0,1.197-0.065,1.53-0.11c0.333-0.066,0.51-0.111,0.599-0.111c0.155,0,0.177,0.134,0.177,0.467
		c0,0.465-0.066,1.994-0.066,2.571c-0.022,0.222-0.066,0.354-0.2,0.354c-0.177,0-0.222-0.11-0.244-0.442l-0.022-0.244
		c-0.044-0.576-0.643-1.197-2.616-1.241l-2.794-0.065v9.09c0,2.04,0,3.792,0.111,4.745c0.067,0.621,0.2,1.107,0.865,1.196
		c0.311,0.044,0.798,0.089,1.131,0.089c0.244,0,0.355,0.065,0.355,0.178c0,0.155-0.178,0.222-0.421,0.222
		c-1.463,0-2.86-0.065-3.481-0.065c-0.51,0-1.907,0.065-2.793,0.065c-0.288,0-0.443-0.065-0.443-0.222
		c0-0.111,0.088-0.178,0.354-0.178c0.333,0,0.599-0.045,0.798-0.089c0.443-0.089,0.576-0.575,0.643-1.22
		c0.111-0.931,0.111-2.683,0.111-4.723v-9.091H62.214z"/>
	<path fill="#F6CF3F" d="M80.222,103.413c0-3.371,0-3.991-0.044-4.701c-0.044-0.754-0.222-1.107-0.954-1.264
		c-0.177-0.044-0.554-0.066-0.864-0.066c-0.244,0-0.377-0.044-0.377-0.198c0-0.155,0.155-0.199,0.488-0.199
		c0.598,0,1.241,0.021,1.795,0.021c0.577,0.022,1.086,0.045,1.397,0.045c0.709,0,5.122,0,5.543-0.021
		c0.421-0.044,0.776-0.089,0.953-0.134c0.111-0.021,0.244-0.088,0.355-0.088c0.111,0,0.133,0.088,0.133,0.198
		c0,0.155-0.111,0.422-0.177,1.441c-0.022,0.222-0.066,1.197-0.111,1.463c-0.022,0.111-0.066,0.244-0.222,0.244
		c-0.156,0-0.2-0.111-0.2-0.312c0-0.153-0.022-0.53-0.133-0.798c-0.155-0.398-0.377-0.665-1.486-0.798
		c-0.377-0.045-2.705-0.089-3.148-0.089c-0.111,0-0.155,0.066-0.155,0.222v5.609c0,0.154,0.022,0.244,0.155,0.244
		c0.488,0,3.037,0,3.547-0.045c0.532-0.045,0.864-0.111,1.064-0.332c0.155-0.179,0.244-0.289,0.355-0.289
		c0.088,0,0.155,0.045,0.155,0.178s-0.089,0.488-0.178,1.619c-0.022,0.443-0.088,1.33-0.088,1.484c0,0.178,0,0.422-0.2,0.422
		c-0.155,0-0.2-0.089-0.2-0.199c-0.022-0.223-0.022-0.51-0.088-0.799c-0.111-0.443-0.421-0.775-1.242-0.865
		c-0.421-0.043-2.616-0.066-3.148-0.066c-0.111,0-0.133,0.091-0.133,0.224v1.751c0,0.754-0.022,2.794,0,3.437
		c0.044,1.529,0.399,1.862,2.661,1.862c0.576,0,1.507,0,2.084-0.266c0.576-0.268,0.842-0.731,0.998-1.642
		c0.044-0.244,0.089-0.333,0.244-0.333c0.178,0,0.178,0.178,0.178,0.399c0,0.51-0.178,2.018-0.289,2.461
		c-0.155,0.576-0.354,0.576-1.197,0.576c-1.663,0-2.882-0.044-3.836-0.066c-0.953-0.044-1.641-0.066-2.306-0.066
		c-0.244,0-0.731,0-1.264,0.022c-0.51,0-1.086,0.044-1.53,0.044c-0.288,0-0.443-0.066-0.443-0.222c0-0.111,0.088-0.179,0.354-0.179
		c0.333,0,0.599-0.044,0.798-0.088c0.443-0.089,0.554-0.575,0.643-1.22c0.111-0.931,0.111-2.683,0.111-4.723v-3.899H80.222z"/>
	<path fill="#F6CF3F" d="M110.36,103.413c0-3.371,0-3.991-0.044-4.701c-0.044-0.754-0.222-1.107-0.953-1.264
		c-0.177-0.044-0.554-0.066-0.865-0.066c-0.244,0-0.377-0.044-0.377-0.198c0-0.155,0.155-0.199,0.488-0.199
		c1.175,0,2.572,0.065,3.237,0.065c0.532,0,1.929-0.065,2.727-0.065c0.333,0,0.488,0.044,0.488,0.199
		c0,0.154-0.133,0.198-0.354,0.198c-0.244,0-0.377,0.022-0.643,0.066c-0.599,0.111-0.776,0.488-0.82,1.264
		c-0.044,0.71-0.044,1.33-0.044,4.701v3.104c0,3.215,0.643,4.565,1.729,5.454c0.998,0.819,2.018,0.908,2.771,0.908
		c0.975,0,2.172-0.311,3.06-1.196c1.219-1.221,1.286-3.216,1.286-5.498v-2.771c0-3.371,0-3.991-0.044-4.701
		c-0.044-0.754-0.222-1.107-0.953-1.264c-0.177-0.044-0.554-0.066-0.798-0.066s-0.377-0.044-0.377-0.198
		c0-0.155,0.155-0.199,0.466-0.199c1.131,0,2.527,0.065,2.55,0.065c0.266,0,1.663-0.065,2.527-0.065
		c0.311,0,0.466,0.044,0.466,0.199c0,0.154-0.133,0.198-0.399,0.198c-0.244,0-0.377,0.022-0.643,0.066
		c-0.599,0.111-0.776,0.488-0.82,1.264c-0.044,0.71-0.044,1.33-0.044,4.701v2.371c0,2.461-0.244,5.078-2.106,6.674
		c-1.574,1.354-3.17,1.598-4.612,1.598c-1.175,0-3.303-0.066-4.922-1.53c-1.13-1.021-1.973-2.66-1.973-5.875v-3.238H110.36z"/>
	<path fill="#F6CF3F" d="M131.453,96.977h4.532l10.21,12.524v-9.631c0-1.027-0.115-1.668-0.345-1.922
		c-0.304-0.345-0.784-0.518-1.441-0.518h-0.579v-0.455h5.813v0.455h-0.591c-0.706,0-1.207,0.214-1.502,0.641
		c-0.181,0.264-0.271,0.862-0.271,1.799v14.076h-0.443l-11.011-13.449v10.285c0,1.025,0.111,1.666,0.333,1.92
		c0.312,0.346,0.792,0.519,1.441,0.519h0.591v0.455h-5.813v-0.455h0.579c0.714,0,1.219-0.214,1.515-0.642
		c0.18-0.262,0.271-0.861,0.271-1.797V99.168c-0.485-0.565-0.852-0.938-1.103-1.12c-0.251-0.181-0.618-0.349-1.102-0.505
		c-0.238-0.074-0.6-0.11-1.084-0.11V96.977z"/>
	<path fill="#F6CF3F" d="M159.564,103.413c0-3.371,0-3.991-0.045-4.701c-0.043-0.754-0.267-1.131-0.754-1.24
		c-0.244-0.066-0.531-0.09-0.798-0.09c-0.222,0-0.354-0.044-0.354-0.222c0-0.133,0.178-0.177,0.531-0.177
		c0.844,0,2.239,0.065,2.883,0.065c0.555,0,1.863-0.065,2.705-0.065c0.289,0,0.465,0.044,0.465,0.177
		c0,0.178-0.133,0.222-0.354,0.222s-0.398,0.022-0.664,0.066c-0.6,0.111-0.777,0.488-0.82,1.264c-0.045,0.71-0.045,1.33-0.045,4.701
		v3.901c0,2.15,0,3.901,0.088,4.854c0.066,0.6,0.223,0.998,0.888,1.087c0.312,0.044,0.799,0.088,1.131,0.088
		c0.244,0,0.354,0.066,0.354,0.179c0,0.154-0.178,0.222-0.422,0.222c-1.463,0-2.859-0.066-3.459-0.066
		c-0.51,0-1.906,0.066-2.793,0.066c-0.287,0-0.442-0.066-0.442-0.222c0-0.111,0.089-0.179,0.354-0.179
		c0.332,0,0.598-0.044,0.797-0.088c0.443-0.089,0.578-0.466,0.645-1.108c0.109-0.932,0.109-2.683,0.109-4.833V103.413
		L159.564,103.413z"/>
	<path fill="#F6CF3F" d="M172.762,99.155c-0.512-1.219-0.888-1.463-1.687-1.686c-0.332-0.089-0.688-0.089-0.864-0.089
		c-0.199,0-0.268-0.065-0.268-0.198c0-0.179,0.244-0.199,0.578-0.199c1.174,0,2.438,0.065,3.215,0.065
		c0.554,0,1.617-0.065,2.727-0.065c0.266,0,0.51,0.044,0.51,0.199c0,0.154-0.133,0.198-0.332,0.198
		c-0.354,0-0.688,0.022-0.865,0.155c-0.154,0.11-0.221,0.267-0.221,0.466c0,0.288,0.199,0.908,0.51,1.707l3.813,10.065h0.089
		c0.953-2.438,3.836-9.577,4.368-11.041c0.109-0.288,0.199-0.62,0.199-0.82c0-0.177-0.09-0.354-0.288-0.421
		c-0.267-0.089-0.599-0.111-0.888-0.111c-0.199,0-0.377-0.021-0.377-0.178c0-0.177,0.199-0.221,0.621-0.221
		c1.108,0,2.039,0.065,2.328,0.065c0.377,0,1.418-0.065,2.084-0.065c0.288,0,0.465,0.044,0.465,0.199
		c0,0.154-0.133,0.198-0.354,0.198s-0.688,0-1.087,0.267c-0.288,0.2-0.62,0.577-1.22,1.996c-0.864,2.084-1.463,3.28-2.66,6.008
		c-1.42,3.237-2.461,5.654-2.948,6.763c-0.576,1.286-0.71,1.642-1.021,1.642c-0.289,0-0.422-0.312-0.842-1.354L172.762,99.155z"/>
	<path fill="#F6CF3F" d="M196.068,103.413c0-3.371,0-3.991-0.043-4.701c-0.045-0.754-0.223-1.107-0.953-1.264
		c-0.178-0.044-0.555-0.066-0.865-0.066c-0.243,0-0.377-0.044-0.377-0.198c0-0.155,0.154-0.199,0.488-0.199
		c0.599,0,1.24,0.021,1.795,0.021c0.576,0.022,1.087,0.045,1.396,0.045c0.711,0,5.121,0,5.543-0.021
		c0.422-0.044,0.775-0.089,0.953-0.134c0.111-0.021,0.244-0.088,0.354-0.088c0.111,0,0.134,0.088,0.134,0.198
		c0,0.155-0.11,0.422-0.177,1.441c-0.022,0.222-0.066,1.197-0.111,1.463c-0.021,0.111-0.066,0.244-0.223,0.244
		c-0.155,0-0.198-0.111-0.198-0.312c0-0.153-0.022-0.53-0.134-0.798c-0.154-0.398-0.377-0.665-1.484-0.798
		c-0.377-0.045-2.705-0.089-3.148-0.089c-0.11,0-0.154,0.066-0.154,0.222v5.609c0,0.154,0.021,0.244,0.154,0.244
		c0.487,0,3.037,0,3.547-0.045c0.533-0.045,0.865-0.111,1.064-0.332c0.155-0.179,0.244-0.289,0.354-0.289
		c0.09,0,0.156,0.045,0.156,0.178s-0.09,0.488-0.178,1.619c-0.021,0.443-0.089,1.33-0.089,1.484c0,0.178,0,0.422-0.2,0.422
		c-0.154,0-0.199-0.089-0.199-0.199c-0.021-0.223-0.021-0.51-0.089-0.799c-0.11-0.443-0.421-0.775-1.241-0.865
		c-0.42-0.043-2.615-0.066-3.147-0.066c-0.11,0-0.134,0.091-0.134,0.224v1.751c0,0.754-0.021,2.794,0,3.437
		c0.045,1.529,0.4,1.862,2.66,1.862c0.578,0,1.508,0,2.084-0.266c0.578-0.268,0.844-0.731,0.998-1.642
		c0.045-0.244,0.09-0.333,0.244-0.333c0.178,0,0.178,0.178,0.178,0.399c0,0.51-0.178,2.018-0.289,2.461
		c-0.154,0.576-0.354,0.576-1.196,0.576c-1.662,0-2.882-0.044-3.835-0.066c-0.954-0.044-1.641-0.066-2.307-0.066
		c-0.244,0-0.731,0-1.265,0.022c-0.51,0-1.086,0.044-1.528,0.044c-0.289,0-0.443-0.066-0.443-0.222c0-0.111,0.089-0.179,0.354-0.179
		c0.334,0,0.6-0.044,0.799-0.088c0.442-0.089,0.555-0.575,0.644-1.22c0.11-0.931,0.11-2.683,0.11-4.723V103.413L196.068,103.413z"/>
	<path fill="#F6CF3F" d="M215.295,103.413c0-3.371,0-3.991-0.044-4.701c-0.045-0.754-0.222-1.107-0.953-1.264
		c-0.178-0.044-0.555-0.066-0.864-0.066c-0.244,0-0.377-0.044-0.377-0.198c0-0.155,0.154-0.199,0.487-0.199
		c1.175,0,2.571,0.065,3.037,0.065c0.754,0,2.438-0.065,3.126-0.065c1.396,0,2.883,0.133,4.08,0.953
		c0.62,0.421,1.507,1.552,1.507,3.037c0,1.641-0.687,3.147-2.926,4.967c1.973,2.481,3.503,4.456,4.812,5.83
		c1.241,1.287,2.149,1.44,2.482,1.508c0.244,0.045,0.443,0.066,0.621,0.066c0.177,0,0.266,0.065,0.266,0.178
		c0,0.178-0.154,0.222-0.421,0.222h-2.106c-1.24,0-1.795-0.11-2.371-0.421c-0.955-0.51-1.797-1.553-3.039-3.26
		c-0.887-1.219-1.905-2.728-2.193-3.06c-0.111-0.134-0.244-0.155-0.398-0.155l-1.93-0.044c-0.111,0-0.178,0.044-0.178,0.177v0.311
		c0,2.063,0,3.814,0.111,4.745c0.065,0.645,0.199,1.131,0.863,1.22c0.334,0.044,0.82,0.089,1.088,0.089
		c0.176,0,0.266,0.065,0.266,0.178c0,0.155-0.155,0.222-0.443,0.222c-1.285,0-2.927-0.065-3.259-0.065
		c-0.422,0-1.817,0.065-2.705,0.065c-0.288,0-0.442-0.065-0.442-0.222c0-0.111,0.088-0.178,0.354-0.178
		c0.333,0,0.6-0.045,0.798-0.089c0.442-0.089,0.556-0.575,0.644-1.22c0.11-0.931,0.11-2.683,0.11-4.723L215.295,103.413
		L215.295,103.413z M217.912,105.164c0,0.243,0.045,0.333,0.199,0.399c0.466,0.153,1.131,0.221,1.686,0.221
		c0.887,0,1.176-0.088,1.574-0.377c0.665-0.486,1.309-1.507,1.309-3.324c0-3.147-2.084-4.059-3.393-4.059
		c-0.555,0-0.953,0.022-1.176,0.09c-0.154,0.044-0.199,0.133-0.199,0.31V105.164z"/>
	<path fill="#F6CF3F" d="M235.7,113.477c-0.354-0.154-0.423-0.267-0.423-0.753c0-1.221,0.09-2.551,0.111-2.905
		c0.022-0.332,0.09-0.576,0.266-0.576c0.201,0,0.223,0.199,0.223,0.377c0,0.289,0.089,0.754,0.2,1.131
		c0.487,1.642,1.796,2.239,3.17,2.239c1.995,0,2.971-1.353,2.971-2.527c0-1.087-0.332-2.105-2.173-3.548l-1.02-0.798
		c-2.438-1.906-3.281-3.458-3.281-5.255c0-2.438,2.04-4.189,5.121-4.189c1.441,0,2.373,0.222,2.949,0.377
		c0.199,0.044,0.311,0.11,0.311,0.267c0,0.288-0.089,0.932-0.089,2.66c0,0.487-0.065,0.666-0.244,0.666
		c-0.155,0-0.222-0.134-0.222-0.399c0-0.2-0.11-0.887-0.576-1.464c-0.333-0.421-0.977-1.086-2.417-1.086
		c-1.642,0-2.638,0.953-2.638,2.283c0,1.021,0.51,1.797,2.35,3.192l0.621,0.465c2.683,2.019,3.636,3.549,3.636,5.654
		c0,1.285-0.487,2.815-2.084,3.857c-1.108,0.709-2.351,0.909-3.524,0.909C237.65,114.054,236.652,113.899,235.7,113.477z"/>
	<path fill="#F6CF3F" d="M255.038,103.413c0-3.371,0-3.991-0.044-4.701c-0.045-0.754-0.268-1.131-0.754-1.24
		c-0.244-0.066-0.532-0.09-0.799-0.09c-0.221,0-0.354-0.044-0.354-0.222c0-0.133,0.179-0.177,0.532-0.177
		c0.843,0,2.238,0.065,2.883,0.065c0.555,0,1.861-0.065,2.705-0.065c0.288,0,0.465,0.044,0.465,0.177
		c0,0.178-0.133,0.222-0.354,0.222s-0.399,0.022-0.666,0.066c-0.599,0.111-0.775,0.488-0.819,1.264
		c-0.045,0.71-0.045,1.33-0.045,4.701v3.901c0,2.15,0,3.901,0.089,4.854c0.066,0.6,0.223,0.998,0.887,1.087
		c0.311,0.044,0.799,0.088,1.131,0.088c0.244,0,0.355,0.066,0.355,0.179c0,0.154-0.178,0.222-0.422,0.222
		c-1.463,0-2.86-0.066-3.458-0.066c-0.511,0-1.907,0.066-2.794,0.066c-0.288,0-0.443-0.066-0.443-0.222
		c0-0.111,0.09-0.179,0.354-0.179c0.334,0,0.6-0.044,0.799-0.088c0.443-0.089,0.576-0.466,0.644-1.108
		c0.11-0.932,0.11-2.683,0.11-4.833L255.038,103.413L255.038,103.413z"/>
	<path fill="#F6CF3F" d="M273.223,98.224l-3.304,0.089c-1.286,0.044-1.817,0.153-2.149,0.643c-0.223,0.332-0.334,0.6-0.377,0.775
		c-0.045,0.178-0.111,0.267-0.244,0.267c-0.155,0-0.199-0.109-0.199-0.354c0-0.355,0.421-2.373,0.466-2.551
		c0.065-0.287,0.133-0.421,0.267-0.421c0.178,0,0.398,0.222,0.952,0.267c0.644,0.065,1.485,0.11,2.218,0.11h8.779
		c0.71,0,1.197-0.065,1.53-0.11c0.332-0.066,0.51-0.111,0.599-0.111c0.154,0,0.178,0.134,0.178,0.467
		c0,0.465-0.066,1.994-0.066,2.571c-0.021,0.222-0.066,0.354-0.199,0.354c-0.178,0-0.222-0.11-0.244-0.442l-0.021-0.244
		c-0.045-0.576-0.643-1.197-2.616-1.241l-2.793-0.065v9.09c0,2.04,0,3.792,0.11,4.745c0.065,0.621,0.199,1.107,0.865,1.196
		c0.311,0.044,0.797,0.089,1.131,0.089c0.242,0,0.354,0.065,0.354,0.178c0,0.155-0.178,0.222-0.422,0.222
		c-1.463,0-2.859-0.065-3.48-0.065c-0.51,0-1.906,0.065-2.794,0.065c-0.288,0-0.442-0.065-0.442-0.222
		c0-0.111,0.088-0.178,0.354-0.178c0.332,0,0.599-0.045,0.798-0.089c0.443-0.089,0.576-0.575,0.643-1.22
		c0.111-0.931,0.111-2.683,0.111-4.723v-9.091H273.223z"/>
	<path fill="#F6CF3F" d="M293.826,108.001c0-1.196-0.223-1.685-0.51-2.328c-0.155-0.354-3.127-5.231-3.902-6.386
		c-0.555-0.82-1.107-1.374-1.529-1.617c-0.289-0.155-0.665-0.289-0.932-0.289c-0.178,0-0.332-0.044-0.332-0.198
		c0-0.134,0.154-0.199,0.421-0.199c0.399,0,2.062,0.065,2.794,0.065c0.465,0,1.374-0.065,2.372-0.065
		c0.222,0,0.332,0.065,0.332,0.199c0,0.133-0.155,0.154-0.487,0.243c-0.199,0.044-0.311,0.222-0.311,0.398s0.109,0.443,0.266,0.754
		c0.311,0.666,3.415,6.008,3.77,6.629c0.223-0.531,3.017-5.409,3.326-6.097c0.222-0.487,0.311-0.864,0.311-1.153
		c0-0.221-0.089-0.465-0.467-0.554c-0.198-0.044-0.397-0.089-0.397-0.222c0-0.155,0.11-0.199,0.377-0.199
		c0.731,0,1.44,0.065,2.084,0.065c0.487,0,1.951-0.065,2.372-0.065c0.244,0,0.399,0.044,0.399,0.177
		c0,0.155-0.179,0.222-0.423,0.222c-0.221,0-0.643,0.089-0.976,0.267c-0.465,0.223-0.709,0.487-1.196,1.087
		c-0.731,0.887-3.836,6.097-4.234,7.05c-0.332,0.799-0.332,1.486-0.332,2.218v1.817c0,0.354,0,1.287,0.066,2.218
		c0.043,0.645,0.242,1.131,0.908,1.22c0.311,0.044,0.799,0.089,1.108,0.089c0.243,0,0.354,0.065,0.354,0.178
		c0,0.154-0.179,0.222-0.467,0.222c-1.396,0-2.793-0.065-3.392-0.065c-0.556,0-1.951,0.065-2.771,0.065
		c-0.312,0-0.488-0.044-0.488-0.222c0-0.111,0.11-0.178,0.354-0.178c0.31,0,0.576-0.045,0.774-0.089
		c0.443-0.089,0.645-0.575,0.688-1.22c0.066-0.931,0.066-1.862,0.066-2.218L293.826,108.001L293.826,108.001z"/>
</g>
<g>
	<path fill="#F6CF3F" d="M261.27,47.365h10.656l24.008,29.452V54.17c0-2.413-0.271-3.918-0.813-4.518
		c-0.714-0.812-1.844-1.217-3.387-1.217h-1.361v-1.071h13.668v1.071h-1.389c-1.662,0-2.84,0.502-3.532,1.506
		c-0.427,0.618-0.64,2.026-0.64,4.228v33.101h-1.041l-25.892-31.623v24.181c0,2.412,0.263,3.918,0.783,4.518
		c0.733,0.812,1.862,1.217,3.388,1.217h1.391v1.07h-13.67v-1.07h1.362c1.681,0,2.866-0.502,3.563-1.505
		c0.423-0.619,0.636-2.028,0.636-4.229V52.52c-1.14-1.333-2.002-2.21-2.591-2.635c-0.59-0.426-1.454-0.82-2.594-1.188
		c-0.559-0.173-1.41-0.261-2.547-0.261V47.365L261.27,47.365z"/>
</g>
<g>
	<path fill="#F6CF3F" d="M23.574,39.506L8.614,6.931v25.865c0,2.379,0.257,3.864,0.771,4.454c0.704,0.799,1.817,1.199,3.34,1.199
		h1.371v1.056H0.62V38.45h1.37c1.637,0,2.798-0.495,3.483-1.485c0.418-0.608,0.628-1.999,0.628-4.168V7.502
		c0-1.713-0.19-2.95-0.571-3.711C5.264,3.239,4.773,2.777,4.06,2.406C3.346,2.035,2.199,1.849,0.62,1.849V0.792h10.963
		l14.046,30.292L39.447,0.792H50.41v1.058h-1.342c-1.656,0-2.827,0.494-3.512,1.483c-0.419,0.609-0.628,1.999-0.628,4.168v25.295
		c0,2.379,0.266,3.864,0.799,4.454c0.704,0.799,1.817,1.199,3.34,1.199h1.342v1.056H33.966V38.45h1.371
		c1.656,0,2.816-0.495,3.483-1.485c0.418-0.608,0.628-1.999,0.628-4.168V6.931L24.516,39.506H23.574z"/>
	<path fill="#F6CF3F" d="M60.832,15.633c0-7.815,0-9.271-0.061-10.906C60.649,2.969,60.104,2.363,58.953,2
		c-0.606-0.182-1.272-0.242-1.939-0.242c-0.545,0-0.849-0.122-0.849-0.605c0-0.303,0.424-0.424,1.272-0.424
		c2,0,5.635,0.121,7.15,0.121c1.333,0,4.787-0.121,6.847-0.121c0.667,0,1.091,0.121,1.091,0.424c0,0.483-0.303,0.605-0.849,0.605
		c-0.546,0-0.969,0.062-1.575,0.183c-1.454,0.242-1.878,0.969-2,2.787c-0.121,1.636-0.121,3.09-0.121,10.906v9.09
		c0,4.969,0,9.089,0.242,11.271c0.182,1.395,0.545,2.181,2.121,2.423c0.727,0.121,1.939,0.183,2.727,0.183
		c0.606,0,0.849,0.303,0.849,0.545c0,0.363-0.424,0.545-1.03,0.545c-3.514,0-7.15-0.183-8.604-0.183
		c-1.212,0-4.848,0.183-6.968,0.183c-0.667,0-1.03-0.183-1.03-0.545c0-0.242,0.182-0.545,0.849-0.545
		c0.788,0,1.394-0.062,1.878-0.183c1.09-0.242,1.394-0.969,1.575-2.483c0.243-2.121,0.243-6.241,0.243-11.209V15.633z"/>
	<path fill="#F6CF3F" d="M83.07,39.021c-0.848-0.363-1.03-0.606-1.03-1.757c0-2.788,0.243-5.999,0.303-6.848
		c0-0.788,0.242-1.333,0.667-1.333c0.485,0,0.545,0.485,0.545,0.849c0,0.667,0.182,1.757,0.484,2.666
		c1.151,3.816,5.15,5.09,8.483,5.09c4.605,0,7.392-2.908,7.392-6.544c0-2.242-0.545-4.484-5.271-7.271l-3.09-1.817
		c-6.302-3.696-8.362-7.15-8.362-11.694C83.191,4.06,89.251,0,96.643,0c3.454,0,6.181,0.485,7.574,0.849
		c0.484,0.12,0.727,0.303,0.727,0.667c0,0.667-0.182,2.12-0.182,6.181c0,1.09-0.243,1.636-0.667,1.636
		c-0.364,0-0.545-0.303-0.545-0.909c0-0.484-0.243-2.06-1.394-3.393c-0.788-0.97-2.484-2.424-5.938-2.424
		c-3.817,0-7.271,2-7.271,5.514c0,2.303,0.848,4.121,5.635,6.787l2.181,1.212c7.029,3.878,9.21,7.816,9.21,12.482
		c0,3.816-1.454,6.907-5.332,9.634c-2.545,1.817-6.059,2.121-8.907,2.121C88.645,40.354,85.373,40.052,83.07,39.021z"/>
	<path fill="#F6CF3F" d="M116.277,39.021c-0.848-0.363-1.03-0.606-1.03-1.757c0-2.788,0.243-5.999,0.303-6.848
		c0-0.788,0.242-1.333,0.667-1.333c0.485,0,0.545,0.485,0.545,0.849c0,0.667,0.182,1.757,0.485,2.666
		c1.151,3.816,5.15,5.09,8.483,5.09c4.605,0,7.392-2.908,7.392-6.544c0-2.242-0.545-4.484-5.271-7.271l-3.09-1.817
		c-6.302-3.696-8.362-7.15-8.362-11.694C116.398,4.06,122.458,0,129.85,0c3.454,0,6.181,0.485,7.574,0.849
		c0.484,0.12,0.727,0.303,0.727,0.667c0,0.667-0.182,2.12-0.182,6.181c0,1.09-0.243,1.636-0.667,1.636
		c-0.364,0-0.545-0.303-0.545-0.909c0-0.484-0.243-2.06-1.394-3.393c-0.788-0.97-2.484-2.424-5.938-2.424
		c-3.817,0-7.271,2-7.271,5.514c0,2.303,0.848,4.121,5.635,6.787l2.181,1.212c7.029,3.878,9.21,7.816,9.21,12.482
		c0,3.816-1.454,6.907-5.332,9.634c-2.545,1.817-6.059,2.121-8.907,2.121C121.852,40.354,118.58,40.052,116.277,39.021z"/>
	<path fill="#F6CF3F" d="M146.575,20.177c0-8.785,6.181-20.177,22.358-20.177c13.45,0,21.813,7.453,21.813,19.27
		c0,11.814-8.604,21.086-22.357,21.086C152.876,40.354,146.575,29.327,146.575,20.177z M182.809,21.147
		c0-11.393-6.848-18.42-15.451-18.42c-5.938,0-12.905,3.15-12.905,15.875c0,10.604,6.06,18.965,16.116,18.965
		C174.326,37.567,182.809,35.81,182.809,21.147z"/>
	<path fill="#F6CF3F" d="M200.688,15.633c0-7.815,0.061-9.271-0.062-10.906c-0.121-1.818-0.606-2.303-2.303-2.787
		c-0.425-0.121-1.333-0.183-2.06-0.183c-0.606,0-0.91-0.182-0.91-0.545s0.363-0.484,1.151-0.484c2.849,0,6.423,0.121,7.998,0.121
		c1.333,0,4.908-0.121,6.847-0.121c0.789,0,1.151,0.121,1.151,0.484s-0.303,0.545-0.849,0.545c-0.605,0-0.908,0.062-1.575,0.183
		c-1.394,0.242-1.817,0.969-1.938,2.787c-0.121,1.636-0.121,3.09-0.121,10.906v7.21c0,7.515,1.455,10.423,4.061,12.482
		c2.363,1.878,4.908,2.06,6.727,2.06c2.303,0,5.028-0.667,7.149-2.727c2.969-2.787,3.09-7.271,3.09-12.542v-6.483
		c0-7.815-0.062-9.271-0.121-10.906c-0.121-1.758-0.546-2.303-2.241-2.787c-0.425-0.121-1.334-0.183-1.938-0.183
		c-0.606,0-0.909-0.182-0.909-0.545s0.363-0.484,1.091-0.484c2.728,0,6.302,0.121,6.362,0.121c0.605,0,4.181-0.121,6.24-0.121
		c0.728,0,1.091,0.121,1.091,0.484s-0.304,0.545-0.908,0.545c-0.606,0-0.909,0.062-1.576,0.183
		c-1.454,0.242-1.817,0.969-1.938,2.787c-0.061,1.636-0.12,3.09-0.12,10.906v5.515c0,5.756-0.606,11.814-5.091,15.512
		c-3.756,3.15-7.815,3.696-11.271,3.696c-2.787,0-8.301-0.121-12.179-3.515c-2.727-2.362-4.848-6.181-4.848-13.633V15.633
		L200.688,15.633z"/>
	<path fill="#F6CF3F" d="M248.316,15.633c0-7.815,0-9.271-0.062-10.906c-0.121-1.758-0.606-2.303-2.303-2.787
		c-0.425-0.121-1.333-0.183-2.121-0.183c-0.545,0-0.908-0.182-0.908-0.545s0.425-0.484,1.212-0.484c2.787,0,6.18,0.121,7.271,0.121
		c1.818,0,6.664-0.121,8.302-0.121c3.394,0,7.271,0.303,10.118,2.181c1.516,1.03,3.757,3.636,3.757,7.089
		c0,3.817-2.181,7.211-7.392,11.393c4.726,5.816,8.481,10.481,11.693,13.693c2.969,2.969,4.848,3.211,5.695,3.394
		c0.545,0.122,0.85,0.122,1.271,0.122c0.424,0,0.668,0.303,0.668,0.545c0,0.424-0.365,0.545-1.031,0.545h-5.09
		c-2.969,0-4.424-0.304-5.816-1.03c-2.303-1.151-4.303-3.575-7.271-7.574c-2.121-2.787-4.362-6.241-5.028-7.028
		c-0.304-0.304-0.606-0.363-0.97-0.363l-4.787-0.122c-0.242,0-0.424,0.122-0.424,0.424v0.728c0,4.786,0.061,8.785,0.303,10.967
		c0.182,1.515,0.425,2.483,2.061,2.727c0.787,0.121,1.938,0.183,2.605,0.183c0.424,0,0.666,0.303,0.666,0.545
		c0,0.363-0.424,0.545-1.09,0.545c-3.092,0-7.515-0.183-8.303-0.183c-1.029,0-4.423,0.183-6.544,0.183
		c-0.666,0-1.03-0.183-1.03-0.545c0-0.242,0.183-0.545,0.85-0.545c0.788,0,1.395-0.062,1.878-0.183
		c1.091-0.242,1.394-1.212,1.576-2.727c0.241-2.182,0.241-6.241,0.241-10.967v-9.089H248.316z M255.102,19.632
		c0,0.545,0.121,0.728,0.484,0.909c1.15,0.363,2.727,0.484,4.061,0.484c2.121,0,2.849-0.183,3.756-0.849
		c1.638-1.15,3.455-3.393,3.455-7.635c0-7.271-4.969-9.148-8.119-9.148c-1.333,0-2.605,0.061-3.151,0.182
		c-0.362,0.122-0.483,0.303-0.483,0.728v15.329H255.102z"/>
	<path fill="#F6CF3F" d="M290.369,15.633c0-7.815,0-9.271-0.061-10.906c-0.121-1.758-0.668-2.363-1.818-2.728
		c-0.605-0.182-1.272-0.242-1.938-0.242c-0.546,0-0.849-0.122-0.849-0.605c0-0.303,0.424-0.424,1.271-0.424
		c2,0,5.635,0.121,7.15,0.121c1.333,0,4.786-0.121,6.848-0.121c0.666,0,1.09,0.121,1.09,0.424c0,0.483-0.303,0.605-0.849,0.605
		c-0.545,0-0.97,0.062-1.575,0.183c-1.453,0.242-1.879,0.969-2,2.787c-0.121,1.636-0.121,3.09-0.121,10.906v9.09
		c0,4.969,0,9.089,0.242,11.271c0.184,1.395,0.547,2.181,2.121,2.423c0.729,0.121,1.939,0.183,2.727,0.183
		c0.606,0,0.85,0.303,0.85,0.545c0,0.363-0.424,0.545-1.03,0.545c-3.515,0-7.149-0.183-8.604-0.183
		c-1.211,0-4.846,0.183-6.967,0.183c-0.666,0-1.03-0.183-1.03-0.545c0-0.242,0.182-0.545,0.849-0.545
		c0.788,0,1.395-0.062,1.878-0.183c1.091-0.242,1.394-0.969,1.576-2.483c0.242-2.121,0.242-6.241,0.242-11.209L290.369,15.633
		L290.369,15.633z"/>
</g>
<g>
	<path fill="#F6CF3F" d="M307.19,109.744v0.673h-1.302v3.395h-0.808v-3.395h-1.302v-0.673H307.19z M311.584,113.81l-0.15-2.393
		c-0.014-0.313-0.014-0.702-0.028-1.136h-0.044c-0.104,0.358-0.227,0.837-0.345,1.21l-0.731,2.258h-0.838l-0.732-2.316
		c-0.074-0.313-0.193-0.792-0.284-1.15h-0.044c0,0.374-0.016,0.762-0.028,1.136l-0.15,2.393h-0.777l0.3-4.066h1.211l0.701,1.989
		c0.09,0.313,0.165,0.61,0.271,1.031h0.014c0.105-0.375,0.196-0.719,0.285-1.019l0.702-2.003h1.167l0.313,4.066H311.584z"/>
</g>
</svg>
